<svg width="30" height="26" viewBox="0 0 30 26" fill="none" xmlns="http://www.w3.org/2000/svg">
<path d="M16.5119 2.91698L16.5121 2.91675C19.2978 0.0698304 23.7775 -0.362102 26.7654 2.15972C30.2203 5.08049 30.4031 10.3267 27.3049 13.4935L27.3048 13.4936L15.9672 25.0889C15.9672 25.0889 15.9672 25.0889 15.9671 25.089C15.4308 25.637 14.5642 25.637 14.0279 25.089C14.0279 25.0889 14.0278 25.0889 14.0278 25.0889L2.69042 13.4938C-0.402337 10.327 -0.219461 5.08054 3.23546 2.15972C6.22353 -0.362268 10.7089 0.0701179 13.4884 2.91639L13.489 2.91698L14.6433 4.09509L15.0004 4.4596L15.3576 4.09509L16.5119 2.91698Z" fill="#FF1A1A" stroke="#FF1A1A"/>
</svg>
