<svg width="183" height="41" viewBox="0 0 183 41" fill="none" xmlns="http://www.w3.org/2000/svg">
<line x1="12.5" y1="27.5125" x2="12.5" y2="12.5125" stroke="white" stroke-width="5" stroke-linecap="round"/>
<line x1="2.5" y1="27.5125" x2="2.5" y2="12.5125" stroke="white" stroke-width="5" stroke-linecap="round"/>
<line x1="25.5" y1="31.5125" x2="25.5" y2="9.51251" stroke="white" stroke-width="5" stroke-linecap="round"/>
<line x1="37" y1="37.5125" x2="37" y2="2.50002" stroke="white" stroke-width="5" stroke-linecap="round"/>
<line x1="47.5" y1="31.5125" x2="47.5" y2="9.51251" stroke="white" stroke-width="5" stroke-linecap="round"/>
<line x1="59.5" y1="27.5125" x2="59.5" y2="12.4128" stroke="white" stroke-width="5" stroke-linecap="round"/>
<line x1="69.5" y1="31.5125" x2="69.5" y2="9.51251" stroke="white" stroke-width="5" stroke-linecap="round"/>
<line x1="80.5" y1="33.5125" x2="80.5" y2="6.51251" stroke="white" stroke-width="5" stroke-linecap="round"/>
<line x1="91.5" y1="37.5125" x2="91.5" y2="2.51251" stroke="white" stroke-width="5" stroke-linecap="round"/>
<line x1="102.5" y1="31.5125" x2="102.5" y2="9.51251" stroke="white" stroke-width="5" stroke-linecap="round"/>
<line x1="113.5" y1="27.5125" x2="113.5" y2="12.5125" stroke="white" stroke-width="5" stroke-linecap="round"/>
<line x1="124.5" y1="37.5125" x2="124.5" y2="2.51251" stroke="white" stroke-width="5" stroke-linecap="round"/>
<line x1="135.5" y1="31.5125" x2="135.5" y2="9.51251" stroke="white" stroke-width="5" stroke-linecap="round"/>
<line x1="146.5" y1="31.5125" x2="146.5" y2="9.51251" stroke="white" stroke-width="5" stroke-linecap="round"/>
<line x1="157.5" y1="25.5125" x2="157.5" y2="14.5125" stroke="white" stroke-width="5" stroke-linecap="round"/>
<line x1="168" y1="33.5125" x2="168" y2="6.49689" stroke="white" stroke-width="5" stroke-linecap="round"/>
<line x1="180" y1="27.5125" x2="180" y2="12.4875" stroke="white" stroke-width="5" stroke-linecap="round"/>
</svg>
